<svg width="10" height="10" viewBox="0 0 10 10" fill="none" xmlns="http://www.w3.org/2000/svg"><path fill-rule="evenodd" clip-rule="evenodd" d="M0.284996 0.286944C0.480258 0.091682 0.796841 0.0916819 0.992103 0.286944L4.99893 4.29377L9.00684 0.285851C9.20211 0.0905889 9.51869 0.0905886 9.71395 0.285851C9.90921 0.481113 9.90921 0.797696 9.71395 0.992958L5.70603 5.00088L9.71309 9.00793C9.90835 9.20319 9.90835 9.51978 9.71309 9.71504C9.51783 9.9103 9.20124 9.9103 9.00598 9.71504L4.99893 5.70798L0.992966 9.71394C0.797704 9.90921 0.481122 9.90921 0.28586 9.71394C0.0905973 9.51868 0.0905975 9.2021 0.28586 9.00684L4.29182 5.00088L0.284996 0.994051C0.0897343 0.798789 0.0897342 0.482206 0.284996 0.286944Z" fill="#E19C2C"></path></svg>